<?xml version="1.0" encoding="UTF-8" standalone="no"?>
<!-- Created with Inkscape (http://www.inkscape.org/) -->

<svg
   version="1.1"
   id="svg1"
   width="274.86612"
   height="267.99948"
   viewBox="0 0 274.86612 267.99948"
   xmlns:xlink="http://www.w3.org/1999/xlink"
   xmlns="http://www.w3.org/2000/svg"
   xmlns:svg="http://www.w3.org/2000/svg">

  <g
     id="layer-MC0"
     transform="translate(-143.90027,-122.66666)">
    <path
       fill="currentColor"
       fill-rule="evenodd"
       id="path1"
       d="M 0,0 H -13.249 L 7.203,29.55 H 21.859 L 41.367,0 H 26.657 L 23.676,5.333 H 3.183 Z M 20.126,11.784 13.804,22.525 7.119,11.784 Z M -61.31,0 v 29.55 h 16.718 L -26.696,9.723 V 29.55 h 12.692 V 0 H -31.345 L -48.657,19.894 V 0 Z m -41.53,0 v 29.55 h 35.178 v -6.373 h -21.967 v -4.703 h 20.315 V 12.182 H -89.629 V 6.448 h 22.804 V 0 Z m -33.811,9.762 V 9.678 c -0.078,-0.371 -0.109,-0.644 -0.109,-0.817 0,-1.153 0.655,-2.007 1.957,-2.57 1.321,-0.561 3.348,-0.839 6.093,-0.839 2.092,0 3.725,0.232 4.913,0.691 1.194,0.457 1.788,1.093 1.788,1.895 0,1.219 -2.355,2.199 -7.042,2.967 -0.549,0.09 -0.962,0.157 -1.226,0.195 -0.3,0.059 -0.744,0.13 -1.319,0.219 -7.451,1.222 -12.246,2.541 -14.36,3.969 -1.031,0.699 -1.819,1.515 -2.351,2.466 -0.511,0.946 -0.78,2.019 -0.78,3.198 0,2.919 1.712,5.135 5.135,6.658 3.423,1.522 8.434,2.283 15.03,2.283 6.517,0 11.344,-0.709 14.482,-2.135 3.137,-1.434 4.71,-3.635 4.71,-6.595 v -0.344 h -12.341 v 0.133 c 0,1.027 -0.62,1.788 -1.869,2.313 -1.249,0.527 -3.079,0.796 -5.49,0.796 -1.869,0 -3.319,-0.185 -4.321,-0.561 -1.021,-0.375 -1.528,-0.91 -1.528,-1.598 0,-1.236 2.693,-2.279 8.073,-3.15 1.034,-0.156 1.852,-0.283 2.437,-0.375 3.834,-0.64 6.561,-1.194 8.186,-1.657 1.629,-0.457 3.026,-1.001 4.208,-1.629 1.31,-0.718 2.339,-1.63 3.045,-2.726 0.714,-1.097 1.07,-2.292 1.07,-3.604 0,-3.005 -1.866,-5.312 -5.595,-6.931 -3.73,-1.619 -9.104,-2.427 -16.103,-2.427 -6.924,0 -11.936,0.78 -15.034,2.332 -3.101,1.56 -4.636,4.051 -4.636,7.487 v 0.44 z"
       transform="matrix(1.3333333,0,0,-1.3333333,353.5076,231.61333)" />
    <path
       fill="currentColor"
       fill-rule="evenodd"
       id="path2"
       d="m 0,0 -11.803,11.097 35.928,62.351 c 1.958,3.4 -0.493,7.649 -4.419,7.649 h -58.813 v 15.594 h 94.661 z"
       transform="matrix(1.3333333,0,0,-1.3333333,196.04293,370.5204)" />
    <path
       fill="currentColor"
       fill-rule="evenodd"
       id="path3"
       d="m 0,0 11.803,11.097 -35.928,62.351 c -1.958,3.4 0.493,7.649 4.418,7.649 h 58.814 v 15.594 h -94.662 z"
       transform="matrix(1.3333333,0,0,-1.3333333,366.62373,370.5204)" />
    <path
       fill="currentColor"
       fill-rule="evenodd"
       id="path4"
       d="M 0,0 C 0.085,0.148 0.129,0.223 0.129,0.223 L 53.47,-87.946 39.304,-95.316 4.933,-37.752 c -2.025,3.392 -6.935,3.399 -8.951,-10e-4 -11.458,-19.315 -34.149,-57.563 -34.149,-57.563 l -13.865,6.857 c 0,0 49.182,83.616 52.032,88.459"
       transform="matrix(1.3333333,0,0,-1.3333333,280.3748,263.57813)" />
    <path
       fill="currentColor" 
       fill-rule="evenodd"
       id="path5"
       d="m 0,0 c 0,-12.15 -9.85,-22 -22,-22 -12.15,0 -22,9.85 -22,22 0,12.15 9.85,22 22,22 C -9.85,22 0,12.15 0,0"
       transform="matrix(1.3333333,0,0,-1.3333333,310.66667,152)" />
  </g>
</svg>
